<?xml version="1.0" encoding="UTF-8"?>
<svg preserveAspectRatio="xMidYMid slice" width="800px" height="219px" xmlns="http://www.w3.org/2000/svg" viewBox="0 0 2659.67 727.3">
  <g id="Layer_2" data-name="Layer 2">
    <g id="Sizing">
      <rect width="2659.67" height="727.3" style="fill:#003c57 "></rect>
    </g>
    <g id="Visual_Identity" data-name="Visual Identity">
      <circle cx="911.38" cy="572.08" r="5.81" style="fill:#003c57"></circle>
      <circle cx="981.14" cy="572.08" r="5.81" style="fill:#99b1bc"></circle>
      <circle cx="213.82" cy="572.08" r="11.63" style="fill:#4c7689"></circle>
      <circle cx="144.06" cy="572.08" r="23.25" style="fill:#99b1bc"></circle>
      <circle cx="423.09" cy="572.08" r="17.44" style="fill:#003c57"></circle>
      <circle cx="492.84" cy="572.08" r="17.44" style="fill:#a8bd3a"></circle>
      <circle cx="702.11" cy="572.08" r="23.25" style="fill:#99b1bc"></circle>
      <circle cx="74.22" cy="84.14" r="5.81" style="fill:#a8bd3a"></circle>
      <circle cx="353.25" cy="84.14" r="11.63" style="fill:#4c7689"></circle>
      <circle cx="74.22" cy="363.4" r="11.63" style="fill:#4c7689"></circle>
      <circle cx="143.98" cy="363.4" r="11.63" style="fill:#99b1bc"></circle>
      <circle cx="213.74" cy="363.4" r="11.63" style="fill:#99b1bc"></circle>
      <circle cx="353.25" cy="363.4" r="5.81" style="fill:#003c57"></circle>
      <circle cx="423" cy="363.4" r="5.81" style="fill:#4c7689"></circle>
      <circle cx="562.52" cy="363.4" r="5.81" style="fill:#99b1bc"></circle>
      <circle cx="632.27" cy="363.4" r="11.63" style="fill:#4c7689"></circle>
      <circle cx="702.03" cy="363.4" r="11.63" style="fill:#99b1bc"></circle>
      <circle cx="74.22" cy="153.89" r="5.81" style="fill:#4c7689"></circle>
      <circle cx="283.49" cy="153.89" r="5.81" style="fill:#003c57"></circle>
      <circle cx="353.25" cy="153.89" r="11.63" style="fill:#003c57"></circle>
      <circle cx="632.27" cy="153.89" r="5.81" style="fill:#003c57"></circle>
      <circle cx="841.54" cy="153.89" r="5.81" style="fill:#99b1bc"></circle>
      <circle cx="143.98" cy="223.65" r="5.81" style="fill:#99b1bc"></circle>
      <circle cx="283.49" cy="223.65" r="5.81" style="fill:#99b1bc"></circle>
      <circle cx="702.03" cy="223.65" r="5.81" style="fill:#99b1bc"></circle>
      <circle cx="841.54" cy="223.65" r="5.81" style="fill:#003c57"></circle>
      <circle cx="1957.64" cy="153.89" r="5.81" style="fill:#99b1bc"></circle>
      <circle cx="1957.64" cy="223.65" r="5.81" style="fill:#a8bd3a"></circle>
      <circle cx="981.06" cy="223.65" r="11.63" style="fill:#99b1bc"></circle>
      <circle cx="283.49" cy="293.41" r="5.81" style="fill:#99b1bc"></circle>
      <circle cx="911.3" cy="363.4" r="5.81" style="fill:#003c57"></circle>
      <circle cx="1050.81" cy="363.4" r="5.81" style="fill:#4c7689"></circle>
      <circle cx="1120.57" cy="363.4" r="5.81" style="fill:#99b1bc"></circle>
      <circle cx="981.06" cy="433.16" r="5.81" style="fill:#003c57"></circle>
      <circle cx="1050.81" cy="433.16" r="5.81" style="fill:#003c57"></circle>
      <circle cx="1120.57" cy="433.16" r="5.81" style="fill:#99b1bc"></circle>
      <circle cx="1120.57" cy="572.08" r="5.81" style="fill:#99b1bc"></circle>
      <circle cx="1120.57" cy="502.69" r="5.81" style="fill:#003c57"></circle>
      <circle cx="492.76" cy="293.41" r="11.63" style="fill:#003c57"></circle>
      <circle cx="841.54" cy="293.41" r="5.81" style="fill:#99b1bc"></circle>
      <circle cx="74.22" cy="432.94" r="11.63" style="fill:#4c7689"></circle>
      <circle cx="213.74" cy="432.94" r="11.63" style="fill:#003c57"></circle>
      <circle cx="353.25" cy="432.94" r="5.81" style="fill:#4c7689"></circle>
      <circle cx="562.52" cy="432.94" r="5.81" style="fill:#003c57"></circle>
      <circle cx="632.27" cy="432.94" r="11.63" style="fill:#003c57"></circle>
      <circle cx="143.98" cy="502.69" r="11.63" style="fill:#003c57"></circle>
      <circle cx="213.74" cy="502.69" r="11.63" style="fill:#4c7689"></circle>
      <circle cx="423" cy="502.69" r="5.81" style="fill:#99b1bc"></circle>
      <circle cx="562.52" cy="502.69" r="5.81" style="fill:#99b1bc"></circle>
      <circle cx="702.03" cy="502.69" r="11.63" style="fill:#003c57"></circle>
      <circle cx="771.79" cy="84.14" r="17.44" style="fill:#4c7689"></circle>
      <circle cx="1050.81" cy="84.14" r="23.25" style="fill:#a8bd3a"></circle>
      <circle cx="283.49" cy="363.4" r="23.25" style="fill:#003c57"></circle>
      <circle cx="492.76" cy="363.4" r="17.44" style="fill:#4c7689"></circle>
      <circle cx="771.79" cy="363.4" r="23.25" style="fill:#4c7689"></circle>
      <circle cx="841.54" cy="363.4" r="23.25" style="fill:#003c57"></circle>
      <circle cx="562.52" cy="153.89" r="23.25" style="fill:#99b1bc"></circle>
      <circle cx="771.79" cy="153.89" r="17.44" style="fill:#003c57"></circle>
      <circle cx="1050.81" cy="153.89" r="23.25" style="fill:#4c7689"></circle>
      <circle cx="74.22" cy="223.65" r="17.44" style="fill:#003c57"></circle>
      <circle cx="353.25" cy="223.65" r="23.25" style="fill:#4c7689"></circle>
      <circle cx="562.52" cy="223.65" r="23.25" style="fill:#003c57"></circle>
      <circle cx="632.27" cy="223.65" r="17.44" style="fill:#c2d175"></circle>
      <circle cx="771.79" cy="223.65" r="17.44" style="fill:#4c7689"></circle>
      <circle cx="1050.81" cy="223.65" r="23.25" style="fill:#4c7689"></circle>
      <circle cx="1120.57" cy="223.65" r="23.25" style="fill:#99b1bc"></circle>
      <circle cx="74.22" cy="293.41" r="17.44" style="fill:#003c57"></circle>
      <circle cx="143.98" cy="293.41" r="17.44" style="fill:#a8bd3a"></circle>
      <circle cx="981.06" cy="363.4" r="17.44" style="fill:#003c57"></circle>
      <circle cx="911.3" cy="433.16" r="17.44" style="fill:#003c57"></circle>
      <circle cx="911.3" cy="502.92" r="17.44" style="fill:#4c7689"></circle>
      <circle cx="981.06" cy="502.92" r="17.44" style="fill:#99b1bc"></circle>
      <circle cx="353.25" cy="293.41" r="23.25" style="fill:#4c7689"></circle>
      <circle cx="562.52" cy="293.41" r="23.25" style="fill:#003c57"></circle>
      <circle cx="632.27" cy="293.41" r="17.44" style="fill:#003c57"></circle>
      <circle cx="702.03" cy="293.41" r="17.44" style="fill:#99b1bc"></circle>
      <circle cx="771.79" cy="293.41" r="17.44" style="fill:#c2d175"></circle>
      <circle cx="981.06" cy="293.41" r="23.25" style="fill:#99b1bc"></circle>
      <circle cx="1050.81" cy="293.41" r="23.25" style="fill:#99b1bc"></circle>
      <circle cx="1120.57" cy="293.41" r="23.25" style="fill:#003c57"></circle>
      <circle cx="1120.57" cy="643.39" r="23.25" style="fill:#a8bd3a"></circle>
      <circle cx="143.98" cy="432.94" r="23.25" style="fill:#003c57"></circle>
      <circle cx="283.49" cy="432.94" r="23.25" style="fill:#a8bd3a"></circle>
      <circle cx="423" cy="432.94" r="17.44" style="fill:#99b1bc"></circle>
      <circle cx="492.76" cy="432.94" r="17.44" style="fill:#4c7689"></circle>
      <circle cx="702.03" cy="432.94" r="23.25" style="fill:#99b1bc"></circle>
      <circle cx="771.79" cy="432.94" r="23.25" style="fill:#4c7689"></circle>
      <circle cx="841.54" cy="432.94" r="23.25" style="fill:#99b1bc"></circle>
      <circle cx="74.22" cy="502.69" r="23.25" style="fill:#c2d175"></circle>
      <circle cx="283.49" cy="502.69" r="23.25" style="fill:#003c57"></circle>
      <circle cx="353.25" cy="502.69" r="17.44" style="fill:#003c57"></circle>
      <circle cx="2585.45" cy="502.69" r="17.44" style="fill:#a8bd3a"></circle>
      <circle cx="492.76" cy="502.69" r="17.44" style="fill:#003c57"></circle>
      <circle cx="632.27" cy="502.69" r="23.25" style="fill:#4c7689"></circle>
      <circle cx="841.54" cy="502.69" r="23.25" style="fill:#003c57"></circle>
      <circle cx="143.98" cy="643.39" r="5.81" style="fill:#99b1bc"></circle>
      <circle cx="213.74" cy="643.39" r="5.81" style="fill:#4c7689"></circle>
      <circle cx="423" cy="643.39" r="11.63" style="fill:#99b1bc"></circle>
      <circle cx="702.03" cy="643.39" r="5.81" style="fill:#4c7689"></circle>
      <circle cx="911.3" cy="643.39" r="11.63" style="fill:#4c7689"></circle>
      <circle cx="1329.92" cy="572.08" r="11.63" style="fill:#4c7689"></circle>
      <circle cx="1190.41" cy="572.08" r="23.25" style="fill:#003c57"></circle>
      <circle cx="1399.68" cy="572.08" r="23.25" style="fill:#99b1bc"></circle>
      <circle cx="1539.19" cy="572.08" r="17.44" style="fill:#003c57"></circle>
      <circle cx="1608.95" cy="572.08" r="17.44" style="fill:#a8bd3a"></circle>
      <circle cx="1748.46" cy="572.08" r="23.25" style="fill:#4c7689"></circle>
      <circle cx="1190.32" cy="84.14" r="5.81" style="fill:#003c57"></circle>
      <circle cx="1469.35" cy="84.14" r="11.63" style="fill:#4c7689"></circle>
      <circle cx="1190.32" cy="363.4" r="11.63" style="fill:#4c7689"></circle>
      <circle cx="1260.08" cy="363.4" r="11.63" style="fill:#99b1bc"></circle>
      <circle cx="1329.84" cy="363.4" r="11.63" style="fill:#99b1bc"></circle>
      <circle cx="1469.35" cy="363.4" r="5.81" style="fill:#003c57"></circle>
      <circle cx="1539.11" cy="363.4" r="5.81" style="fill:#4c7689"></circle>
      <circle cx="1678.62" cy="363.4" r="5.81" style="fill:#99b1bc"></circle>
      <circle cx="1748.38" cy="363.4" r="11.63" style="fill:#4c7689"></circle>
      <circle cx="1818.13" cy="363.4" r="11.63" style="fill:#99b1bc"></circle>
      <circle cx="1190.32" cy="153.89" r="5.81" style="fill:#4c7689"></circle>
      <circle cx="1399.59" cy="153.89" r="5.81" style="fill:#003c57"></circle>
      <circle cx="1469.35" cy="153.89" r="11.63" style="fill:#003c57"></circle>
      <circle cx="1260.08" cy="223.65" r="5.81" style="fill:#99b1bc"></circle>
      <circle cx="1399.59" cy="223.65" r="5.81" style="fill:#99b1bc"></circle>
      <circle cx="1608.86" cy="223.65" r="11.63" style="fill:#003c57"></circle>
      <circle cx="1818.13" cy="223.65" r="5.81" style="fill:#99b1bc"></circle>
      <circle cx="1329.84" cy="293.41" r="5.81" style="fill:#003c57"></circle>
      <circle cx="1399.59" cy="293.41" r="5.81" style="fill:#99b1bc"></circle>
      <circle cx="1608.86" cy="293.41" r="11.63" style="fill:#003c57"></circle>
      <circle cx="1957.64" cy="293.41" r="5.81" style="fill:#99b1bc"></circle>
      <circle cx="1190.32" cy="432.94" r="11.63" style="fill:#4c7689"></circle>
      <circle cx="1329.84" cy="432.94" r="11.63" style="fill:#003c57"></circle>
      <circle cx="1469.35" cy="432.94" r="5.81" style="fill:#4c7689"></circle>
      <circle cx="1678.62" cy="432.94" r="5.81" style="fill:#003c57"></circle>
      <circle cx="1748.38" cy="432.94" r="11.63" style="fill:#a8bd3a"></circle>
      <circle cx="1260.08" cy="502.69" r="11.63" style="fill:#003c57"></circle>
      <circle cx="1329.84" cy="502.69" r="11.63" style="fill:#c2d175"></circle>
      <circle cx="1539.11" cy="502.69" r="5.81" style="fill:#99b1bc"></circle>
      <circle cx="1678.62" cy="502.69" r="5.81" style="fill:#99b1bc"></circle>
      <circle cx="1678.62" cy="84.14" r="23.25" style="fill:#003c57"></circle>
      <circle cx="1399.59" cy="363.4" r="23.25" style="fill:#003c57"></circle>
      <circle cx="1608.86" cy="363.4" r="17.44" style="fill:#4c7689"></circle>
      <circle cx="1887.89" cy="363.4" r="23.25" style="fill:#4c7689"></circle>
      <circle cx="1957.64" cy="363.4" r="23.25" style="fill:#a8bd3a"></circle>
      <circle cx="1260.08" cy="153.89" r="17.44" style="fill:#99b1bc"></circle>
      <circle cx="1678.62" cy="153.89" r="23.25" style="fill:#99b1bc"></circle>
      <circle cx="1818.13" cy="153.89" r="17.44" style="fill:#003c57"></circle>
      <circle cx="1190.32" cy="223.65" r="17.44" style="fill:#003c57"></circle>
      <circle cx="1469.35" cy="223.65" r="23.25" style="fill:#c2d175"></circle>
      <circle cx="1678.62" cy="223.65" r="23.25" style="fill:#003c57"></circle>
      <circle cx="1887.89" cy="223.65" r="17.44" style="fill:#4c7689"></circle>
      <circle cx="1887.89" cy="643.39" r="17.44" style="fill:#c2d175"></circle>
      <circle cx="1190.32" cy="293.41" r="17.44" style="fill:#a8bd3a"></circle>
      <circle cx="1260.08" cy="293.41" r="17.44" style="fill:#003c57"></circle>
      <circle cx="1469.35" cy="293.41" r="23.25" style="fill:#4c7689"></circle>
      <circle cx="1539.11" cy="293.41" r="23.25" style="fill:#99b1bc"></circle>
      <circle cx="1678.62" cy="293.41" r="23.25" style="fill:#a8bd3a"></circle>
      <circle cx="1818.13" cy="293.41" r="17.44" style="fill:#99b1bc"></circle>
      <circle cx="1887.89" cy="293.41" r="17.44" style="fill:#c2d175"></circle>
      <circle cx="1260.08" cy="432.94" r="23.25" style="fill:#003c57"></circle>
      <circle cx="1399.59" cy="432.94" r="23.25" style="fill:#003c57"></circle>
      <circle cx="1539.11" cy="432.94" r="17.44" style="fill:#99b1bc"></circle>
      <circle cx="1608.86" cy="432.94" r="17.44" style="fill:#4c7689"></circle>
      <circle cx="1818.13" cy="432.94" r="23.25" style="fill:#99b1bc"></circle>
      <circle cx="1887.89" cy="432.94" r="23.25" style="fill:#4c7689"></circle>
      <circle cx="1957.64" cy="432.94" r="23.25" style="fill:#99b1bc"></circle>
      <circle cx="1190.32" cy="502.69" r="23.25" style="fill:#4c7689"></circle>
      <circle cx="1399.59" cy="502.69" r="23.25" style="fill:#003c57"></circle>
      <circle cx="1608.86" cy="502.69" r="17.44" style="fill:#003c57"></circle>
      <circle cx="1748.38" cy="502.69" r="23.25" style="fill:#4c7689"></circle>
      <circle cx="1887.89" cy="502.69" r="23.25" style="fill:#003c57"></circle>
      <circle cx="1887.89" cy="572.08" r="23.25" style="fill:#003c57"></circle>
      <circle cx="1957.64" cy="502.69" r="23.25" style="fill:#003c57"></circle>
      <circle cx="1539.11" cy="643.39" r="11.63" style="fill:#99b1bc"></circle>
      <circle cx="1748.38" cy="643.39" r="5.81" style="fill:#003c57"></circle>
      <circle cx="2027.48" cy="571.87" r="5.81" style="fill:#003c57"></circle>
      <circle cx="2097.24" cy="571.87" r="5.81" style="fill:#99b1bc"></circle>
      <circle cx="2097.16" cy="223.43" r="11.63" style="fill:#99b1bc"></circle>
      <circle cx="2027.4" cy="363.19" r="5.81" style="fill:#003c57"></circle>
      <circle cx="2166.91" cy="363.19" r="5.81" style="fill:#4c7689"></circle>
      <circle cx="2236.67" cy="363.19" r="5.81" style="fill:#99b1bc"></circle>
      <circle cx="2097.16" cy="432.94" r="5.81" style="fill:#003c57"></circle>
      <circle cx="2166.91" cy="432.94" r="5.81" style="fill:#003c57"></circle>
      <circle cx="2236.67" cy="432.94" r="5.81" style="fill:#99b1bc"></circle>
      <circle cx="2236.67" cy="571.87" r="5.81" style="fill:#99b1bc"></circle>
      <circle cx="2236.67" cy="502.48" r="5.81" style="fill:#003c57"></circle>
      <circle cx="2166.91" cy="83.92" r="23.25" style="fill:#a8bd3a"></circle>
      <circle cx="2166.91" cy="153.68" r="23.25" style="fill:#4c7689"></circle>
      <circle cx="2166.91" cy="223.43" r="23.25" style="fill:#4c7689"></circle>
      <circle cx="2236.67" cy="223.43" r="23.25" style="fill:#99b1bc"></circle>
      <circle cx="2097.16" cy="363.19" r="17.44" style="fill:#003c57"></circle>
      <circle cx="2027.4" cy="432.94" r="17.44" style="fill:#003c57"></circle>
      <circle cx="2027.4" cy="502.7" r="17.44" style="fill:#4c7689"></circle>
      <circle cx="2097.16" cy="502.7" r="17.44" style="fill:#99b1bc"></circle>
      <circle cx="2097.16" cy="293.19" r="23.25" style="fill:#99b1bc"></circle>
      <circle cx="2166.91" cy="293.19" r="23.25" style="fill:#99b1bc"></circle>
      <circle cx="2236.67" cy="293.19" r="23.25" style="fill:#003c57"></circle>
      <circle cx="2236.67" cy="643.17" r="23.25" style="fill:#a8bd3a"></circle>
      <circle cx="2027.4" cy="643.17" r="11.63" style="fill:#4c7689"></circle>
      <circle cx="2446.02" cy="571.87" r="11.63" style="fill:#4c7689"></circle>
      <circle cx="2306.51" cy="571.87" r="23.25" style="fill:#003c57"></circle>
      <circle cx="2515.78" cy="571.87" r="23.25" style="fill:#99b1bc"></circle>
      <circle cx="2306.43" cy="83.92" r="5.81" style="fill:#003c57"></circle>
      <circle cx="2585.45" cy="83.92" r="11.63" style="fill:#4c7689"></circle>
      <circle cx="2306.43" cy="363.19" r="11.63" style="fill:#4c7689"></circle>
      <circle cx="2376.18" cy="363.19" r="11.63" style="fill:#99b1bc"></circle>
      <circle cx="2445.94" cy="363.19" r="11.63" style="fill:#99b1bc"></circle>
      <circle cx="2585.45" cy="363.19" r="5.81" style="fill:#003c57"></circle>
      <circle cx="2306.43" cy="153.68" r="5.81" style="fill:#4c7689"></circle>
      <circle cx="2515.69" cy="153.68" r="5.81" style="fill:#003c57"></circle>
      <circle cx="2585.45" cy="153.68" r="11.63" style="fill:#003c57"></circle>
      <circle cx="2376.18" cy="223.43" r="5.81" style="fill:#99b1bc"></circle>
      <circle cx="2515.69" cy="223.43" r="5.81" style="fill:#99b1bc"></circle>
      <circle cx="2445.94" cy="293.19" r="5.81" style="fill:#003c57"></circle>
      <circle cx="2515.69" cy="293.19" r="5.81" style="fill:#99b1bc"></circle>
      <circle cx="2306.43" cy="432.72" r="11.63" style="fill:#4c7689"></circle>
      <circle cx="2445.94" cy="432.72" r="11.63" style="fill:#003c57"></circle>
      <circle cx="2585.45" cy="432.72" r="5.81" style="fill:#4c7689"></circle>
      <circle cx="2376.18" cy="502.48" r="11.63" style="fill:#003c57"></circle>
      <circle cx="2445.94" cy="502.48" r="11.63" style="fill:#c2d175"></circle>
      <circle cx="2515.69" cy="363.19" r="23.25" style="fill:#003c57"></circle>
      <circle cx="2376.18" cy="153.68" r="17.44" style="fill:#99b1bc"></circle>
      <circle cx="2306.43" cy="223.43" r="17.44" style="fill:#003c57"></circle>
      <circle cx="2585.45" cy="223.43" r="23.25" style="fill:#c2d175"></circle>
      <circle cx="2306.43" cy="293.19" r="17.44" style="fill:#a8bd3a"></circle>
      <circle cx="2376.18" cy="293.19" r="17.44" style="fill:#003c57"></circle>
      <circle cx="2585.45" cy="293.19" r="23.25" style="fill:#4c7689"></circle>
      <circle cx="2376.18" cy="432.72" r="23.25" style="fill:#003c57"></circle>
      <circle cx="2515.69" cy="432.72" r="23.25" style="fill:#003c57"></circle>
      <circle cx="2306.43" cy="502.48" r="23.25" style="fill:#4c7689"></circle>
      <circle cx="2515.69" cy="502.48" r="23.25" style="fill:#003c57"></circle>
    </g>
  </g>
</svg>
